<svg width="4114" height="800" viewBox="0 0 4114 800" fill="none" xmlns="http://www.w3.org/2000/svg">
<g clip-path="url(#clip0)">
<mask id="mask0" mask-type="alpha" maskUnits="userSpaceOnUse" x="0" y="0" width="800" height="800">
<circle cx="400" cy="400" r="400" fill="#C4C4C4"/>
</mask>
<g mask="url(#mask0)">
<circle cx="400" cy="400" r="400" fill="#F6F8FA"/>
<g style="mix-blend-mode:multiply">
<path fill-rule="evenodd" clip-rule="evenodd" d="M594.222 73.2716L664.164 73.2716C687.985 73.2716 705.386 80.874 716.368 96.0789C727.518 111.284 733.262 135.527 733.6 168.809C734.445 186.041 738.011 198.653 744.262 206.593C750.513 214.365 759.889 218.25 772.391 218.25H840.053C870.293 218.25 888.455 235.651 894.537 270.454H897.071C902.646 235.651 920.723 218.25 951.302 218.25H1019.47C1032.14 218.25 1041.6 214.365 1047.85 206.593C1054.1 198.653 1057.4 186.067 1057.74 168.835H1099.55C1099.38 203.806 1093.38 229.063 1081.56 244.605C1069.9 259.979 1051.06 267.666 1025.04 267.666L960.171 267.666C931.789 267.666 917.597 287.939 917.597 328.486H874.01C874.01 307.874 870.631 292.585 863.874 282.618C856.947 272.65 846.388 267.666 832.197 267.666H761.241C737.758 267.666 720.357 259.472 709.037 243.085C697.718 226.697 691.996 201.922 691.996 168.809C691.827 153.604 688.577 142.2 682.664 134.598C676.751 126.826 667.036 122.941 653.521 122.941L593.715 122.941C575.132 122.941 560.856 118.886 550.888 110.777C540.921 102.499 534.332 89.1522 531.122 70.7375H528.588C522.506 105.54 504.345 122.941 474.104 122.941L406.442 122.941C393.772 122.941 384.395 126.489 378.313 133.584C372.062 140.511 368.53 152.252 367.685 168.809C367.516 203.78 361.553 229.063 349.727 244.605C338.07 259.979 319.233 267.666 293.215 267.666L228.341 267.666C199.959 267.666 185.768 287.939 185.768 328.486H142.181C142.181 307.874 138.802 292.585 132.044 282.618C125.117 272.65 114.558 267.666 100.367 267.666H29.4113C5.92822 267.666 -11.4729 259.472 -22.792 243.085C-34.1112 226.697 -39.8336 201.922 -39.8336 168.809C-40.0025 153.604 -43.2189 142.479 -49.1319 134.876C-55.0449 127.105 -64.7591 123.219 -78.2745 123.219L-138.08 123.219C-156.664 123.219 -170.94 119.164 -180.907 111.055C-190.875 102.777 -197.464 89.4305 -200.674 71.0158H-203.208C-209.29 105.818 -227.451 123.219 -257.692 123.219L-325.353 123.219C-338.024 123.219 -347.4 126.767 -353.482 133.862C-359.733 140.789 -363.281 152.531 -364.126 169.087H-405.686C-405.686 135.298 -399.857 110.971 -388.2 96.1038C-376.543 81.0678 -357.452 73.5499 -330.928 73.5499L-265.548 73.5499C-250.681 73.5499 -239.953 68.904 -233.364 59.6121C-226.944 50.1513 -223.734 35.7067 -223.734 16.2783L-180.147 16.2783C-180.147 35.3688 -176.768 49.729 -170.01 59.3587C-163.422 68.8195 -152.609 73.5499 -137.573 73.5499L-67.6311 73.5499C-43.8102 73.5499 -26.4091 81.1523 -15.4278 96.3572C-4.27759 111.562 1.43253 135.527 1.77039 168.809C2.61508 186.041 6.18164 198.653 12.4325 206.593C18.6834 214.365 28.0597 218.25 40.5615 218.25H108.223C138.464 218.25 156.625 235.651 162.707 270.454H165.241C170.816 235.651 188.893 218.25 219.472 218.25H287.64C300.311 218.25 309.772 214.365 316.023 206.593C322.273 198.653 325.743 186.041 326.081 168.809C326.081 135.02 331.939 110.692 343.596 95.8255C355.253 80.7896 374.343 73.2716 400.867 73.2716L466.248 73.2716C481.115 73.2716 491.843 68.6257 498.432 59.3338C504.852 49.873 508.061 35.4284 508.061 16L551.649 16C551.649 35.0905 555.027 49.4507 561.785 59.0804C568.374 68.5412 579.186 73.2716 594.222 73.2716Z" fill="#FF4D4D" fill-opacity="0.5"/>
</g>
<g style="mix-blend-mode:multiply">
<path fill-rule="evenodd" clip-rule="evenodd" d="M594.159 174.451L664.101 174.451C687.922 174.451 705.323 182.054 716.305 197.259C727.455 212.463 733.199 236.707 733.537 269.988L691.933 269.988C691.764 254.784 688.514 243.38 682.601 235.777C676.688 228.006 666.973 224.12 653.458 224.12L593.652 224.12C575.069 224.12 560.793 220.066 550.825 211.957C540.858 203.678 534.269 190.332 531.059 171.917H528.525C522.443 206.719 504.282 224.12 474.041 224.12L406.379 224.12C393.708 224.12 384.332 227.668 378.25 234.764C371.999 241.691 368.467 253.432 367.622 269.988C367.453 304.96 361.49 330.242 349.664 345.785C338.007 361.159 319.169 368.846 293.152 368.846L228.278 368.846C199.896 368.846 185.705 389.119 185.705 429.665H142.117C142.117 409.054 138.739 393.765 131.981 383.797C125.054 373.83 114.495 368.846 100.304 368.846H29.3482C5.86511 368.846 -11.536 360.652 -22.8551 344.265C-34.1743 327.877 -39.8967 303.101 -39.8967 269.988C-40.0655 254.784 -43.2819 243.658 -49.1949 236.056C-55.1078 228.284 -64.8221 224.399 -78.3375 224.399L-138.143 224.399C-156.727 224.399 -171.003 220.344 -180.97 212.235C-190.938 203.957 -197.527 190.61 -200.737 172.195H-203.271C-209.353 206.998 -227.514 224.399 -257.755 224.399L-325.416 224.399C-338.087 224.399 -347.463 227.947 -353.545 235.042C-359.796 241.969 -363.344 253.71 -364.189 270.267H-405.749C-405.749 236.478 -399.92 212.15 -388.263 197.283C-376.606 182.248 -357.515 174.73 -330.991 174.73L-265.611 174.73C-250.744 174.73 -240.016 170.084 -233.427 160.792C-227.007 151.331 -223.797 136.886 -223.797 117.458L-180.21 117.458C-180.21 136.549 -176.831 150.909 -170.073 160.538C-163.485 169.999 -152.672 174.73 -137.636 174.73L-67.6941 174.73C-43.8732 174.73 -26.4721 182.332 -15.4908 197.537C-4.34058 212.742 1.36954 236.707 1.70728 269.988C2.55197 287.221 6.11853 299.833 12.3694 307.773C18.6203 315.544 27.9966 319.43 40.4984 319.43H108.16C138.401 319.43 156.562 336.831 162.644 371.633H165.178C170.753 336.831 188.83 319.43 219.409 319.43H287.577C300.248 319.43 309.709 315.544 315.96 307.773C322.21 299.833 325.68 287.221 326.018 269.988C326.018 236.2 331.875 211.872 343.532 197.005C355.19 181.969 374.28 174.451 400.804 174.451L466.185 174.451C481.052 174.451 491.78 169.805 498.369 160.514C504.788 151.053 507.998 136.608 507.998 117.18L551.586 117.18C551.586 136.27 554.964 150.63 561.722 160.26C568.311 169.721 579.123 174.451 594.159 174.451ZM960.108 368.846L1024.98 368.846C1051 368.846 1069.84 361.159 1081.49 345.785C1093.32 330.242 1099.32 304.985 1099.49 270.014H1057.67C1057.33 287.246 1054.04 299.833 1047.79 307.773C1041.54 315.544 1032.08 319.43 1019.41 319.43H951.238C920.66 319.43 902.583 336.831 897.008 371.633H894.474C888.392 336.831 870.23 319.43 839.99 319.43H772.328C759.826 319.43 750.45 315.544 744.199 307.773C737.948 299.833 734.382 287.221 733.537 269.988H691.933C691.933 303.101 697.655 327.877 708.974 344.265C720.294 360.652 737.695 368.846 761.178 368.846H832.134C846.325 368.846 856.884 373.83 863.81 383.797C870.568 393.765 873.947 409.054 873.947 429.665H917.534C917.534 389.119 931.725 368.846 960.108 368.846Z" fill="#FFE559" fill-opacity="0.5"/>
</g>
<g style="mix-blend-mode:multiply">
<path fill-rule="evenodd" clip-rule="evenodd" d="M594.096 275.631L664.038 275.631C687.859 275.631 705.26 283.234 716.242 298.439C727.392 313.644 733.136 337.887 733.474 371.169C734.318 388.401 737.885 401.013 744.136 408.953C750.387 416.725 759.763 420.61 772.265 420.61H839.926C870.167 420.61 888.328 438.011 894.41 472.814H896.945C902.52 438.011 920.597 420.61 951.175 420.61H1019.34C1032.01 420.61 1041.48 416.725 1047.73 408.953C1053.98 401.013 1057.27 388.427 1057.61 371.194H1099.42C1099.25 406.166 1093.26 431.423 1081.43 446.965C1069.77 462.339 1050.94 470.026 1024.92 470.026L960.045 470.026C931.662 470.026 917.471 490.299 917.471 530.845H873.884C873.884 510.234 870.505 494.945 863.747 484.977C856.821 475.01 846.262 470.026 832.071 470.026H761.115C737.632 470.026 720.23 461.832 708.911 445.445C697.592 429.057 691.87 404.281 691.87 371.169C691.701 355.964 688.451 344.56 682.538 336.958C676.625 329.186 666.911 325.301 653.395 325.301L593.589 325.301C575.006 325.301 560.73 321.246 550.762 313.137C540.795 304.859 534.206 291.512 530.996 273.097H528.462C522.38 307.9 504.219 325.301 473.978 325.301L406.316 325.301C393.646 325.301 384.269 328.848 378.187 335.944C371.936 342.871 368.404 354.612 367.559 371.169C367.39 406.14 361.427 431.423 349.601 446.965C337.944 462.339 319.107 470.026 293.089 470.026L228.215 470.026C199.833 470.026 185.642 490.299 185.642 530.845H142.055C142.055 510.234 138.676 494.945 131.918 484.977C124.991 475.01 114.432 470.026 100.241 470.026H29.2853C5.80225 470.026 -11.5989 461.832 -22.918 445.445C-34.2372 429.057 -39.9596 404.281 -39.9596 371.169C-40.1285 355.964 -43.3448 344.838 -49.2578 337.236C-55.1708 329.465 -64.885 325.579 -78.4005 325.579L-138.206 325.579C-156.79 325.579 -171.066 321.524 -181.033 313.415C-191.001 305.137 -197.59 291.79 -200.8 273.376H-203.334C-209.416 308.178 -227.577 325.579 -257.818 325.579L-325.479 325.579C-338.15 325.579 -347.526 329.127 -353.608 336.222C-359.859 343.149 -363.407 354.89 -364.252 371.447H-405.812C-405.812 337.658 -399.983 313.331 -388.326 298.464C-376.669 283.428 -357.578 275.91 -331.054 275.91L-265.674 275.91C-250.807 275.91 -240.079 271.264 -233.49 261.972C-227.07 252.511 -223.86 238.067 -223.86 218.638L-180.273 218.638C-180.273 237.729 -176.894 252.089 -170.136 261.719C-163.548 271.179 -152.735 275.91 -137.699 275.91L-67.7571 275.91C-43.9362 275.91 -26.5351 283.512 -15.5538 298.717C-4.40356 313.922 1.30655 337.887 1.64441 371.169C2.48911 388.401 6.05566 401.013 12.3065 408.953C18.5574 416.725 27.9337 420.61 40.4355 420.61H108.097C138.338 420.61 156.499 438.011 162.581 472.814H165.115C170.69 438.011 188.767 420.61 219.346 420.61H287.514C300.185 420.61 309.646 416.725 315.897 408.953C322.148 401.013 325.617 388.401 325.955 371.169C325.955 337.38 331.813 313.052 343.47 298.185C355.127 283.149 374.217 275.631 400.741 275.631L466.122 275.631C480.989 275.631 491.717 270.986 498.306 261.694C504.726 252.233 507.935 237.788 507.935 218.36L551.523 218.36C551.523 237.45 554.901 251.811 561.659 261.44C568.248 270.901 579.06 275.631 594.096 275.631Z" fill="#EFAFF1" fill-opacity="0.5"/>
</g>
<g style="mix-blend-mode:multiply">
<path fill-rule="evenodd" clip-rule="evenodd" d="M594.033 376.811L663.976 376.811C687.797 376.811 705.198 384.414 716.179 399.618C727.329 414.823 733.073 439.067 733.411 472.348C734.256 489.58 737.822 502.193 744.073 510.133C750.324 517.904 759.7 521.79 772.202 521.79H839.864C870.105 521.79 888.266 539.191 894.348 573.993H896.882C902.457 539.191 920.534 521.79 951.113 521.79H1019.28C1031.95 521.79 1041.41 517.904 1047.66 510.133C1053.91 502.193 1057.21 489.606 1057.55 472.374H1099.36C1099.19 507.345 1093.19 532.602 1081.37 548.145C1069.71 563.519 1050.87 571.206 1024.86 571.206L959.982 571.206C931.6 571.206 917.409 591.479 917.409 632.025H873.821C873.821 611.414 870.443 596.125 863.685 586.157C856.758 576.189 846.199 571.206 832.008 571.206H761.052C737.569 571.206 720.168 563.012 708.849 546.624C697.53 530.237 691.807 505.461 691.807 472.348C691.638 457.143 688.388 445.74 682.475 438.137C676.562 430.366 666.848 426.48 653.332 426.48L593.526 426.48C574.943 426.48 560.667 422.426 550.7 414.316C540.732 406.038 534.143 392.692 530.933 374.277H528.399C522.317 409.079 504.156 426.48 473.915 426.48L406.253 426.48C393.583 426.48 384.206 430.028 378.125 437.124C371.874 444.05 368.341 455.792 367.496 472.348C367.327 507.319 361.364 532.602 349.538 548.145C337.881 563.519 319.044 571.206 293.027 571.206L228.152 571.206C199.77 571.206 185.579 591.479 185.579 632.025H141.992C141.992 611.414 138.613 596.125 131.855 586.157C124.929 576.189 114.37 571.206 100.178 571.206H29.2224C5.73938 571.206 -11.6617 563.012 -22.9809 546.624C-34.3 530.237 -40.0225 505.461 -40.0225 472.348C-40.1915 457.143 -43.4078 446.018 -49.3208 438.416C-55.2338 430.644 -64.948 426.759 -78.4635 426.759L-138.269 426.759C-156.853 426.759 -171.129 422.704 -181.096 414.595C-191.064 406.317 -197.653 392.97 -200.863 374.555H-203.397C-209.479 409.358 -227.64 426.759 -257.881 426.759L-325.542 426.759C-338.213 426.759 -347.589 430.306 -353.671 437.402C-359.922 444.329 -363.47 456.07 -364.315 472.627H-405.875C-405.875 438.838 -400.046 414.51 -388.389 399.643C-376.732 384.607 -357.641 377.089 -331.117 377.089L-265.737 377.089C-250.87 377.089 -240.142 372.444 -233.553 363.152C-227.133 353.691 -223.923 339.246 -223.923 319.818L-180.336 319.818C-180.336 338.908 -176.957 353.269 -170.199 362.898C-163.611 372.359 -152.798 377.089 -137.762 377.089L-67.8201 377.089C-43.9992 377.089 -26.5981 384.692 -15.6168 399.897C-4.46655 415.102 1.24356 439.067 1.58154 472.348C2.42624 489.58 5.9928 502.193 12.2437 510.133C18.4946 517.904 27.8709 521.79 40.3727 521.79H108.034C138.275 521.79 156.436 539.191 162.518 573.993H165.052C170.628 539.191 188.704 521.79 219.283 521.79H287.451C300.122 521.79 309.583 517.904 315.834 510.133C322.085 502.193 325.554 489.58 325.892 472.348C325.892 438.56 331.75 414.232 343.407 399.365C355.064 384.329 374.154 376.811 400.678 376.811L466.059 376.811C480.926 376.811 491.654 372.165 498.243 362.873C504.663 353.413 507.873 338.968 507.873 319.54L551.46 319.54C551.46 338.63 554.839 352.99 561.596 362.62C568.185 372.081 578.997 376.811 594.033 376.811Z" fill="#F8BB8F" fill-opacity="0.5"/>
</g>
<g style="mix-blend-mode:multiply">
<path fill-rule="evenodd" clip-rule="evenodd" d="M593.971 477.991L663.913 477.991C687.734 477.991 705.135 485.593 716.116 500.798C727.267 516.003 733.011 540.246 733.349 573.528L691.745 573.528C691.576 558.323 688.325 546.919 682.412 539.317C676.499 531.546 666.785 527.66 653.27 527.66L593.464 527.66C574.88 527.66 560.605 523.605 550.637 515.496C540.669 507.218 534.081 493.871 530.871 475.457H528.337C522.255 510.259 504.093 527.66 473.853 527.66L406.191 527.66C393.52 527.66 384.144 531.208 378.062 538.303C371.811 545.23 368.279 556.972 367.434 573.528C367.265 608.499 361.301 633.782 349.475 649.325C337.818 664.698 318.981 672.385 292.964 672.385L228.09 672.385C199.707 672.385 185.516 692.659 185.516 733.205H141.929C141.929 712.594 138.55 697.304 131.792 687.337C124.866 677.369 114.307 672.385 100.116 672.385H29.1597C5.67664 672.385 -11.7245 664.192 -23.0436 647.804C-34.3628 631.417 -40.0852 606.641 -40.0852 573.528H1.5188C2.36349 590.76 5.93005 603.372 12.1809 611.313C18.4318 619.084 27.8081 622.97 40.3099 622.97H107.971C138.212 622.97 156.374 640.371 162.456 675.173H164.99C170.565 640.371 188.642 622.97 219.22 622.97H287.389C300.059 622.97 309.52 619.084 315.771 611.313C322.022 603.372 325.492 590.76 325.83 573.528C325.83 539.739 331.687 515.412 343.344 500.545C355.001 485.509 374.092 477.991 400.616 477.991L465.997 477.991C480.864 477.991 491.592 473.345 498.18 464.053C504.6 454.592 507.81 440.148 507.81 420.719L551.397 420.719C551.397 439.81 554.776 454.17 561.534 463.8C568.123 473.26 578.935 477.991 593.971 477.991ZM959.919 672.385L1024.79 672.385C1050.81 672.385 1069.65 664.698 1081.3 649.325C1093.13 633.782 1099.13 608.525 1099.3 573.554H1057.48C1057.15 590.786 1053.85 603.372 1047.6 611.313C1041.35 619.084 1031.89 622.97 1019.22 622.97H951.05C920.471 622.97 902.394 640.371 896.819 675.173H894.285C888.203 640.371 870.042 622.97 839.801 622.97H772.14C759.638 622.97 750.261 619.084 744.01 611.313C737.76 603.372 734.193 590.76 733.348 573.528H691.744C691.744 606.641 697.467 631.417 708.786 647.804C720.105 664.192 737.506 672.385 760.989 672.385H831.945C846.136 672.385 856.695 677.369 863.622 687.337C870.38 697.304 873.759 712.594 873.759 733.205H917.346C917.346 692.659 931.537 672.385 959.919 672.385ZM-67.8826 478.269L-137.825 478.269C-152.861 478.269 -163.673 473.539 -170.262 464.078C-177.02 454.448 -180.398 440.088 -180.398 420.998L-223.986 420.998C-223.986 440.426 -227.196 454.871 -233.615 464.331C-240.204 473.623 -250.932 478.269 -265.799 478.269L-331.18 478.269C-357.704 478.269 -376.794 485.787 -388.451 500.823C-400.109 515.69 -405.937 540.018 -405.937 573.806H-364.377C-363.532 557.25 -359.985 545.508 -353.734 538.582C-347.652 531.486 -338.275 527.938 -325.605 527.938L-257.943 527.938C-227.702 527.938 -209.541 510.537 -203.459 475.735H-200.925C-197.715 494.15 -191.126 507.496 -181.159 515.774C-171.191 523.884 -156.915 527.938 -138.332 527.938L-78.526 527.938C-65.0105 527.938 -55.2963 531.824 -49.3833 539.595C-43.4703 547.198 -40.254 558.323 -40.0851 573.528H1.51895C1.18106 540.246 -4.52905 516.281 -15.6793 501.076C-26.6606 485.872 -44.0617 478.269 -67.8826 478.269Z" fill="#97DCE6" fill-opacity="0.5"/>
</g>
<g style="mix-blend-mode:multiply">
<path fill-rule="evenodd" clip-rule="evenodd" d="M593.908 579.171L663.85 579.171C687.671 579.171 705.072 586.773 716.053 601.978C727.204 617.183 732.948 641.426 733.286 674.708C734.13 691.94 737.697 704.552 743.947 712.492C750.198 720.264 759.575 724.149 772.076 724.149H839.738C869.979 724.149 888.14 741.55 894.222 776.353H896.756C902.331 741.55 920.408 724.149 950.987 724.149H1019.16C1031.83 724.149 1041.29 720.264 1047.54 712.492C1053.79 704.552 1057.08 691.966 1057.42 674.734H1099.23C1099.07 709.705 1093.07 734.962 1081.24 750.504C1069.58 765.878 1050.75 773.565 1024.73 773.565L959.856 773.565C931.474 773.565 917.283 793.838 917.283 834.384H873.695C873.695 813.773 870.317 798.484 863.559 788.516C856.632 778.549 846.073 773.565 831.882 773.565H760.926C737.443 773.565 720.042 765.371 708.723 748.984C697.404 732.596 691.681 707.82 691.682 674.708C691.513 659.503 688.262 648.099 682.349 640.497C676.436 632.725 666.722 628.84 653.207 628.84L593.401 628.84C574.817 628.84 560.542 624.785 550.574 616.676C540.606 608.398 534.018 595.051 530.808 576.636H528.273C522.192 611.439 504.03 628.84 473.789 628.84L406.128 628.84C393.457 628.84 384.081 632.387 377.999 639.483C371.748 646.41 368.215 658.151 367.371 674.708C367.202 709.679 361.238 734.962 349.412 750.504C337.755 765.878 318.918 773.565 292.901 773.565L228.027 773.565C199.644 773.565 185.453 793.838 185.453 834.384H141.866C141.866 813.773 138.487 798.484 131.73 788.516C124.803 778.549 114.244 773.565 100.053 773.565H29.0968C5.61377 773.565 -11.7874 765.371 -23.1065 748.984C-34.4257 732.596 -40.1481 707.82 -40.1481 674.708C-40.317 659.503 -43.5333 648.377 -49.4463 640.775C-55.3593 633.004 -65.0735 629.118 -78.589 629.118L-138.395 629.118C-156.978 629.118 -171.254 625.063 -181.222 616.954C-191.189 608.676 -197.778 595.329 -200.988 576.915H-203.522C-209.604 611.717 -227.765 629.118 -258.006 629.118L-325.668 629.118C-338.338 629.118 -347.715 632.666 -353.797 639.761C-360.048 646.688 -363.595 658.43 -364.44 674.986H-406C-406 641.197 -400.171 616.87 -388.514 602.003C-376.857 586.967 -357.767 579.449 -331.243 579.449L-265.862 579.449C-250.995 579.449 -240.267 574.803 -233.678 565.511C-227.259 556.05 -224.049 541.606 -224.049 522.177L-180.461 522.177C-180.461 541.268 -177.083 555.628 -170.325 565.258C-163.736 574.718 -152.924 579.449 -137.888 579.449L-67.9456 579.449C-44.1247 579.449 -26.7235 587.051 -15.7422 602.256C-4.59204 617.461 1.11807 641.426 1.45593 674.708C2.30063 691.94 5.86719 704.552 12.1181 712.492C18.369 720.264 27.7453 724.149 40.247 724.149H107.909C138.149 724.149 156.311 741.55 162.393 776.353H164.927C170.502 741.55 188.579 724.149 219.157 724.149H287.326C299.997 724.149 309.457 720.264 315.708 712.492C321.959 704.552 325.429 691.94 325.767 674.708C325.767 640.919 331.624 616.591 343.281 601.724C354.938 586.688 374.029 579.171 400.553 579.171L465.934 579.171C480.801 579.171 491.528 574.525 498.117 565.233C504.537 555.772 507.747 541.327 507.747 521.899L551.334 521.899C551.334 540.989 554.713 555.35 561.471 564.979C568.059 574.44 578.872 579.171 593.908 579.171Z" fill="#95D86C" fill-opacity="0.5"/>
</g>
</g>
<path d="M1102.98 439.535V383.418H1249.79V583.923C1226.33 591.608 1203.58 597.068 1181.54 600.303C1159.5 603.741 1135.33 605.46 1109.04 605.46C1048.58 605.46 1001.96 587.563 969.204 551.769C936.444 515.976 920.064 465.723 920.064 401.011C920.064 336.299 938.466 285.844 975.271 249.646C1012.28 213.246 1063.24 195.045 1128.15 195.045C1169.41 195.045 1208.84 203.134 1246.45 219.312L1223.7 273.61C1190.94 258.645 1158.49 251.163 1126.33 251.163C1083.87 251.163 1050.2 264.51 1025.32 291.203C1000.65 318.099 988.314 355.308 988.314 402.831C988.314 450.152 999.437 486.552 1021.68 512.032C1043.93 537.513 1075.98 550.253 1117.84 550.253C1138.67 550.253 1161.32 547.624 1185.79 542.366V439.535H1102.98ZM1560.46 600H1509.8L1500.7 560.566H1497.67C1488.57 574.722 1475.73 585.743 1459.14 593.63C1442.76 601.517 1424.06 605.46 1403.03 605.46C1366.42 605.46 1339.12 596.36 1321.13 578.16C1303.13 559.96 1294.13 532.356 1294.13 495.349V298.18H1358.74V484.125C1358.74 507.583 1363.49 525.076 1373 536.603C1382.7 547.927 1397.57 553.589 1417.59 553.589C1444.68 553.589 1464.4 545.602 1476.74 529.626C1489.48 513.448 1495.85 486.451 1495.85 448.635V298.18H1560.46V600ZM1668.24 175.329V600H1603.94V175.329H1668.24ZM1788.1 175.329V600H1723.8V175.329H1788.1ZM2175.37 600H2103.18L2064.35 459.252C2059.9 445.905 2051.31 411.223 2038.57 355.207H2036.14C2025.02 406.775 2016.63 441.557 2010.96 459.555L1970.92 600H1899.94L1815.31 298.18H1880.83L1919.36 446.815C1927.85 482.609 1934.02 514.156 1937.86 541.456H1939.38C1941.2 528.311 1943.93 513.246 1947.57 496.259C1951.41 479.272 1954.75 466.127 1957.58 456.825L2003.38 298.18H2073.75L2118.35 456.825C2121.18 466.127 2124.51 479.778 2128.36 497.776C2132.4 515.571 2134.93 529.929 2135.94 540.849H2138.06C2140.69 518.605 2147.06 487.26 2157.17 446.815L2196 298.18H2260.61L2175.37 600ZM2352.99 298.18V600H2288.69V298.18H2352.99ZM2356.94 217.796C2356.94 228.918 2353.8 237.614 2347.53 243.883C2341.27 250.152 2332.37 253.286 2320.84 253.286C2309.52 253.286 2300.72 250.152 2294.45 243.883C2288.18 237.614 2285.05 228.918 2285.05 217.796C2285.05 206.471 2288.18 197.776 2294.45 191.709C2300.72 185.44 2309.52 182.305 2320.84 182.305C2332.37 182.305 2341.27 185.44 2347.53 191.709C2353.8 197.776 2356.94 206.471 2356.94 217.796ZM2668.27 403.134V600H2603.66V414.358C2603.66 390.9 2598.91 373.509 2589.4 362.184C2580.1 350.657 2565.34 344.894 2545.11 344.894C2518.02 344.894 2498.2 352.983 2485.66 369.161C2473.12 385.339 2466.85 412.133 2466.85 449.545V600H2402.55V298.18H2452.9L2461.7 337.614H2465.03C2474.13 323.256 2486.97 312.235 2503.56 304.55C2520.34 296.663 2539.05 292.72 2559.67 292.72C2632.07 292.72 2668.27 329.525 2668.27 403.134ZM2799.58 598.787C2781.18 598.787 2766.52 603.134 2755.6 611.83C2744.88 620.526 2739.52 631.951 2739.52 646.107C2739.52 660.465 2745.69 671.385 2758.02 678.868C2770.56 686.35 2788.16 690.091 2810.81 690.091C2844.78 690.091 2870.56 685.137 2888.16 675.228C2905.75 665.521 2914.55 652.174 2914.55 635.187C2914.55 622.245 2909.79 612.942 2900.29 607.28C2890.99 601.618 2873.6 598.787 2848.12 598.787H2799.58ZM2976.73 298.18V333.367L2925.16 342.77C2936.08 357.937 2941.54 375.632 2941.54 395.854C2941.54 426.795 2930.72 451.264 2909.09 469.262C2887.65 487.058 2858.13 495.956 2820.51 495.956C2810.2 495.956 2801.5 495.248 2794.42 493.832C2780.47 502.326 2773.49 512.336 2773.49 523.862C2773.49 530.94 2776.83 536.198 2783.5 539.636C2790.38 542.872 2802.21 544.489 2819 544.489H2871.47C2904.64 544.489 2929.92 551.567 2947.31 565.723C2964.7 579.879 2973.39 600.404 2973.39 627.3C2973.39 661.476 2959.24 687.867 2930.93 706.471C2902.62 725.076 2861.87 734.378 2808.68 734.378C2767.83 734.378 2736.49 727.098 2714.65 712.538C2693.01 697.978 2682.19 677.25 2682.19 650.354C2682.19 631.749 2687.95 616.077 2699.48 603.337C2711.21 590.799 2727.69 582.002 2748.92 576.946C2740.43 573.306 2733.35 567.442 2727.69 559.353C2722.23 551.264 2719.5 542.265 2719.5 532.356C2719.5 522.447 2722.43 513.65 2728.3 505.966C2734.36 498.079 2744.07 490.091 2757.42 482.002C2741.44 475.126 2728.6 464.105 2718.89 448.938C2709.39 433.569 2704.64 415.875 2704.64 395.854C2704.64 363.094 2714.95 337.715 2735.58 319.717C2756.41 301.719 2785.93 292.72 2824.15 292.72C2832.44 292.72 2841.34 293.327 2850.85 294.54C2860.55 295.551 2867.63 296.764 2872.08 298.18H2976.73ZM2823.55 333.974C2804.94 333.974 2790.89 339.232 2781.38 349.747C2771.88 360.263 2767.12 375.329 2767.12 394.944C2767.12 414.358 2771.98 429.221 2781.68 439.535C2791.39 449.646 2805.35 454.702 2823.55 454.702C2860.55 454.702 2879.06 434.58 2879.06 394.338C2879.06 354.095 2860.55 333.974 2823.55 333.974Z" fill="#433D38"/>
</g>
<defs>
<clipPath id="clip0">
<rect width="4114" height="800" fill="white"/>
</clipPath>
</defs>
</svg>
